<svg width="60" height="60" viewBox="0 0 60 60" fill="none" xmlns="http://www.w3.org/2000/svg">
<g clip-path="url(#clip0_535_58)">
<path d="M47.5 50.0007H12.5C9.18601 49.9968 6.00889 48.6785 3.66555 46.3352C1.3222 43.9918 0.00396964 40.8147 0 37.5007L0 22.5007C0.00396964 19.1867 1.3222 16.0096 3.66555 13.6663C6.00889 11.3229 9.18601 10.0047 12.5 10.0007H47.5C50.814 10.0047 53.9911 11.3229 56.3345 13.6663C58.6778 16.0096 59.996 19.1867 60 22.5007V37.5007C59.996 40.8147 58.6778 43.9918 56.3345 46.3352C53.9911 48.6785 50.814 49.9968 47.5 50.0007ZM12.5 15.0007C10.5109 15.0007 8.60322 15.7909 7.1967 17.1974C5.79018 18.604 5 20.5116 5 22.5007V37.5007C5 39.4899 5.79018 41.3975 7.1967 42.804C8.60322 44.2106 10.5109 45.0007 12.5 45.0007H47.5C49.4891 45.0007 51.3968 44.2106 52.8033 42.804C54.2098 41.3975 55 39.4899 55 37.5007V22.5007C55 20.5116 54.2098 18.604 52.8033 17.1974C51.3968 15.7909 49.4891 15.0007 47.5 15.0007H12.5ZM30 40.0007C28.0222 40.0007 26.0888 39.4142 24.4443 38.3154C22.7998 37.2166 21.5181 35.6548 20.7612 33.8276C20.0043 32.0003 19.8063 29.9896 20.1921 28.0498C20.578 26.11 21.5304 24.3282 22.9289 22.9297C24.3275 21.5311 26.1093 20.5787 28.0491 20.1929C29.9889 19.807 31.9996 20.0051 33.8268 20.7619C35.6541 21.5188 37.2159 22.8005 38.3147 24.445C39.4135 26.0895 40 28.0229 40 30.0007C40 32.6529 38.9464 35.1964 37.0711 37.0718C35.1957 38.9472 32.6522 40.0007 30 40.0007ZM30 25.0007C29.0111 25.0007 28.0444 25.294 27.2221 25.8434C26.3999 26.3928 25.759 27.1737 25.3806 28.0873C25.0022 29.0009 24.9031 30.0063 25.0961 30.9762C25.289 31.9461 25.7652 32.837 26.4645 33.5363C27.1637 34.2355 28.0546 34.7117 29.0245 34.9047C29.9945 35.0976 30.9998 34.9986 31.9134 34.6201C32.827 34.2417 33.6079 33.6008 34.1573 32.7786C34.7068 31.9563 35 30.9896 35 30.0007C35 28.6746 34.4732 27.4029 33.5355 26.4652C32.5979 25.5275 31.3261 25.0007 30 25.0007ZM12.5 20.0007C12.0055 20.0007 11.5222 20.1474 11.1111 20.4221C10.7 20.6968 10.3795 21.0872 10.1903 21.544C10.0011 22.0008 9.95157 22.5035 10.048 22.9885C10.1445 23.4734 10.3826 23.9189 10.7322 24.2685C11.0819 24.6181 11.5273 24.8562 12.0123 24.9527C12.4972 25.0492 12.9999 24.9997 13.4567 24.8104C13.9135 24.6212 14.304 24.3008 14.5787 23.8897C14.8534 23.4785 15 22.9952 15 22.5007C15 21.8377 14.7366 21.2018 14.2678 20.733C13.7989 20.2641 13.163 20.0007 12.5 20.0007ZM45 22.5007C45 22.9952 45.1466 23.4785 45.4213 23.8897C45.696 24.3008 46.0865 24.6212 46.5433 24.8104C47.0001 24.9997 47.5028 25.0492 47.9877 24.9527C48.4727 24.8562 48.9181 24.6181 49.2678 24.2685C49.6174 23.9189 49.8555 23.4734 49.952 22.9885C50.0484 22.5035 49.9989 22.0008 49.8097 21.544C49.6205 21.0872 49.3 20.6968 48.8889 20.4221C48.4778 20.1474 47.9945 20.0007 47.5 20.0007C46.837 20.0007 46.2011 20.2641 45.7322 20.733C45.2634 21.2018 45 21.8377 45 22.5007ZM12.5 35.0007C12.0055 35.0007 11.5222 35.1474 11.1111 35.4221C10.7 35.6968 10.3795 36.0872 10.1903 36.544C10.0011 37.0008 9.95157 37.5035 10.048 37.9885C10.1445 38.4734 10.3826 38.9189 10.7322 39.2685C11.0819 39.6181 11.5273 39.8562 12.0123 39.9527C12.4972 40.0492 12.9999 39.9997 13.4567 39.8104C13.9135 39.6212 14.304 39.3008 14.5787 38.8897C14.8534 38.4785 15 37.9952 15 37.5007C15 36.8377 14.7366 36.2018 14.2678 35.733C13.7989 35.2641 13.163 35.0007 12.5 35.0007ZM45 37.5007C45 37.9952 45.1466 38.4785 45.4213 38.8897C45.696 39.3008 46.0865 39.6212 46.5433 39.8104C47.0001 39.9997 47.5028 40.0492 47.9877 39.9527C48.4727 39.8562 48.9181 39.6181 49.2678 39.2685C49.6174 38.9189 49.8555 38.4734 49.952 37.9885C50.0484 37.5035 49.9989 37.0008 49.8097 36.544C49.6205 36.0872 49.3 35.6968 48.8889 35.4221C48.4778 35.1474 47.9945 35.0007 47.5 35.0007C46.837 35.0007 46.2011 35.2641 45.7322 35.733C45.2634 36.2018 45 36.8377 45 37.5007Z" fill="#143894"/>
</g>
<defs>
<clipPath id="clip0_535_58">
<rect width="60" height="60" fill="white"/>
</clipPath>
</defs>
</svg>
