<svg width="184" height="172" viewBox="0 0 184 172" fill="none" xmlns="http://www.w3.org/2000/svg">
<ellipse cx="103.773" cy="93.4534" rx="79.6933" ry="78.5467" fill="white"/>
<g clip-path="url(#clip0_393_415)">
<path d="M80.2667 0C64.3914 0 48.8727 4.70756 35.6729 13.5274C22.4731 22.3472 12.1852 34.8831 6.10997 49.5499C0.0347784 64.2168 -1.55477 80.3557 1.54234 95.9259C4.63944 111.496 12.2841 125.798 23.5096 137.024C34.7351 148.249 49.0372 155.894 64.6074 158.991C80.1777 162.088 96.3166 160.499 110.983 154.423C125.65 148.348 138.186 138.06 147.006 124.86C155.826 111.661 160.533 96.1419 160.533 80.2667C160.51 58.9857 152.046 38.5829 136.998 23.535C121.95 8.48705 101.548 0.023017 80.2667 0V0ZM147.156 80.2667C147.164 93.375 143.296 106.193 136.039 117.109L128.065 109.129C127.44 108.502 127.089 107.653 127.089 106.768V100.333C127.089 95.0113 124.975 89.9073 121.212 86.1441C117.448 82.3808 112.344 80.2667 107.022 80.2667H86.9556C85.1816 80.2667 83.4802 79.562 82.2258 78.3075C80.9714 77.0531 80.2667 75.3518 80.2667 73.5778V70.2333C80.2667 69.3463 80.6191 68.4957 81.2463 67.8685C81.8735 67.2413 82.7241 66.8889 83.6111 66.8889C88.0461 66.8889 92.2995 65.1271 95.4355 61.9911C98.5716 58.855 100.333 54.6017 100.333 50.1667V43.4778C100.333 42.5908 100.686 41.7401 101.313 41.1129C101.94 40.4857 102.791 40.1333 103.678 40.1333H112.902C117.332 40.1207 121.579 38.3614 124.721 35.2371L127.243 32.7154C133.552 38.9232 138.562 46.3249 141.98 54.4888C145.399 62.6528 147.158 71.4158 147.156 80.2667ZM13.7056 86.7081L34.8291 107.832C36.6879 109.702 38.8998 111.186 41.3363 112.195C43.7729 113.204 46.3856 113.72 49.0229 113.711H66.8889C68.6629 113.711 70.3643 114.416 71.6187 115.67C72.8731 116.925 73.5778 118.626 73.5778 120.4V146.814C58.1947 145.244 43.8283 138.401 32.9156 127.446C22.0029 116.49 15.2158 102.097 13.7056 86.7081V86.7081ZM86.9556 146.814V120.4C86.9556 115.078 84.8414 109.974 81.0782 106.211C77.315 102.448 72.2109 100.333 66.8889 100.333H49.0229C48.1434 100.334 47.2725 100.161 46.4599 99.825C45.6473 99.4887 44.9089 98.9955 44.2872 98.3735L14.4681 68.5544C16.3823 57.6729 20.9679 47.4369 27.8136 38.7647C34.6593 30.0924 43.5508 23.2553 53.6904 18.8668C63.83 14.4782 74.9004 12.6755 85.9085 13.6205C96.9166 14.5654 107.518 18.2283 116.761 24.2807L115.263 25.779C114.633 26.3999 113.786 26.7503 112.902 26.7556H103.678C99.2428 26.7556 94.9894 28.5174 91.8534 31.6534C88.7174 34.7894 86.9556 39.0428 86.9556 43.4778V50.1667C86.9556 51.0537 86.6032 51.9043 85.976 52.5316C85.3488 53.1588 84.4981 53.5111 83.6111 53.5111C79.1761 53.5111 74.9228 55.2729 71.7867 58.4089C68.6507 61.545 66.8889 65.7983 66.8889 70.2333V73.5778C66.8889 78.8998 69.0031 84.0038 72.7663 87.7671C76.5295 91.5303 81.6336 93.6445 86.9556 93.6445H107.022C108.796 93.6445 110.498 94.3492 111.752 95.6036C113.006 96.858 113.711 98.5593 113.711 100.333V106.768C113.724 111.199 115.483 115.446 118.607 118.587L127.55 127.53C116.657 138.461 102.311 145.276 86.9556 146.814V146.814Z" fill="#143894"/>
</g>
<defs>
<clipPath id="clip0_393_415">
<rect width="160.533" height="160.533" fill="white"/>
</clipPath>
</defs>
</svg>
