<svg width="60" height="60" viewBox="0 0 60 60" fill="none" xmlns="http://www.w3.org/2000/svg">
<g clip-path="url(#clip0_393_477)">
<path d="M59.9996 28.7499C59.9983 27.0259 59.4876 25.3406 58.5318 23.9058C57.576 22.4709 56.2176 21.3504 54.6271 20.6849C53.6121 14.8908 50.5865 9.64019 46.0824 5.8566C41.5784 2.073 35.8845 -0.0012207 30.0021 -0.0012207C24.1198 -0.0012207 18.4258 2.073 13.9218 5.8566C9.41777 9.64019 6.39215 14.8908 5.37713 20.6849C3.56213 21.4485 2.05775 22.802 1.10724 24.5264C0.156733 26.2509 -0.184335 28.2456 0.139192 30.1879C0.462718 32.1302 1.43192 33.9066 2.89009 35.2299C4.34825 36.5531 6.21012 37.3459 8.17463 37.4799C9.46585 40.2201 11.217 42.7187 13.3521 44.8674C10.2236 48.2834 8.2381 52.59 7.67213 57.1874C7.63116 57.5133 7.6548 57.844 7.74169 58.1607C7.82859 58.4775 7.97703 58.7739 8.17855 59.0333C8.38007 59.2926 8.63071 59.5097 8.91615 59.6721C9.2016 59.8345 9.51625 59.9391 9.84213 59.9799C9.945 59.9925 10.0485 59.9991 10.1521 59.9999C10.7605 59.9992 11.3478 59.7767 11.8039 59.374C12.26 58.9713 12.5536 58.4161 12.6296 57.8124C13.0829 54.1878 14.6712 50.7995 17.1671 48.1324C20.89 50.8804 25.3734 52.4063 29.9996 52.4999C34.6122 52.4055 39.0825 50.886 42.7971 48.1499C45.2823 50.8124 46.864 54.1911 47.3171 57.8049C47.3926 58.409 47.6859 58.9648 48.1421 59.368C48.5982 59.7712 49.1858 59.9941 49.7946 59.9949C49.8991 59.9944 50.0034 59.9877 50.1071 59.9749C50.7648 59.8925 51.3628 59.5524 51.7697 59.0292C52.1766 58.506 52.3591 57.8426 52.2771 57.1849C51.7151 52.5991 49.7396 48.302 46.6246 44.8899C48.7715 42.7346 50.5322 40.2265 51.8296 37.4749C54.044 37.3278 56.1197 36.3448 57.6366 34.7249C59.1535 33.105 59.9982 30.9692 59.9996 28.7499ZM50.6196 32.4324C50.0365 32.3256 49.4344 32.431 48.9222 32.7295C48.41 33.028 48.0216 33.4999 47.8271 34.0599C45.5371 40.5549 37.8246 47.4999 29.9996 47.4999C22.1746 47.4999 14.4621 40.5499 12.1721 34.0549C11.9772 33.4952 11.5887 33.0236 11.0766 32.7251C10.5646 32.4267 9.9627 32.3211 9.37963 32.4274C9.17187 32.4682 8.96121 32.4924 8.74963 32.4999C7.82159 32.4888 6.93064 32.134 6.24909 31.504C5.56753 30.8741 5.14379 30.0138 5.05982 29.0895C4.97585 28.1652 5.23761 27.2426 5.79449 26.5001C6.35137 25.7577 7.16379 25.2481 8.07463 25.0699C8.60616 24.9736 9.09219 24.7076 9.45994 24.3119C9.82769 23.9162 10.0574 23.4121 10.1146 22.8749C10.4485 19.6782 11.5516 16.6099 13.3297 13.9324C15.1077 11.2549 17.5078 9.0478 20.3246 7.49992C19.9153 9.09017 19.8964 10.7558 20.2696 12.3549C20.7779 14.4697 21.9618 16.361 23.6418 17.7423C25.3218 19.1236 27.4063 19.9196 29.5794 20.0095C31.7526 20.0993 33.8957 19.4783 35.6841 18.2404C37.4724 17.0026 38.8084 15.2155 39.4896 13.1499C39.6007 12.783 39.6238 12.3951 39.5572 12.0176C39.4905 11.64 39.3359 11.2835 39.1059 10.9768C38.8759 10.6701 38.5769 10.4219 38.2331 10.2522C37.8894 10.0824 37.5105 9.99604 37.1271 9.99992H36.7496C36.2898 10.015 35.8467 10.176 35.4845 10.4596C35.1222 10.7432 34.8596 11.1347 34.7346 11.5774C34.444 12.4515 33.9176 13.2282 33.2136 13.822C32.5095 14.4159 31.655 14.8037 30.7445 14.9427C29.834 15.0816 28.9028 14.9664 28.0536 14.6097C27.2044 14.253 26.4702 13.6686 25.9321 12.9211C25.394 12.1736 25.0728 11.2919 25.004 10.3734C24.9352 9.45495 25.1214 8.5353 25.5421 7.71594C25.9629 6.89658 26.6018 6.20936 27.3883 5.7301C28.1749 5.25083 29.0786 4.99815 29.9996 4.99992C34.9392 4.98811 39.7074 6.80968 43.381 10.1119C47.0545 13.4141 49.372 17.962 49.8846 22.8749C49.9419 23.4121 50.1716 23.9162 50.5393 24.3119C50.9071 24.7076 51.3931 24.9736 51.9246 25.0699C52.8355 25.2481 53.6479 25.7577 54.2048 26.5001C54.7616 27.2426 55.0234 28.1652 54.9394 29.0895C54.8555 30.0138 54.4317 30.8741 53.7502 31.504C53.0686 32.134 52.1777 32.4888 51.2496 32.4999C51.0382 32.4941 50.8275 32.4715 50.6196 32.4324Z" fill="#E1F2FE"/>
<path d="M23.7504 32.5002C25.8214 32.5002 27.5004 30.8213 27.5004 28.7502C27.5004 26.6792 25.8214 25.0002 23.7504 25.0002C21.6793 25.0002 20.0004 26.6792 20.0004 28.7502C20.0004 30.8213 21.6793 32.5002 23.7504 32.5002Z" fill="#E1F2FE"/>
<path d="M36.2496 32.5002C38.3207 32.5002 39.9996 30.8213 39.9996 28.7502C39.9996 26.6792 38.3207 25.0002 36.2496 25.0002C34.1786 25.0002 32.4996 26.6792 32.4996 28.7502C32.4996 30.8213 34.1786 32.5002 36.2496 32.5002Z" fill="#E1F2FE"/>
</g>
<defs>
<clipPath id="clip0_393_477">
<rect width="60" height="60" fill="white"/>
</clipPath>
</defs>
</svg>
