<svg width="403" height="364" viewBox="0 0 403 364" fill="none" xmlns="http://www.w3.org/2000/svg">
<g filter="url(#filter0_d_464_41)">
<path fill-rule="evenodd" clip-rule="evenodd" d="M198.062 164.305C184.52 173.353 179.316 195.93 163.054 196.941C146.805 197.952 138.094 177.553 124.317 168.891C111.47 160.814 92.8119 160.841 84.98 147.854C77.1169 134.815 82.1439 118.13 84.6515 103.116C86.9836 89.1523 90.1841 75.1474 98.9778 64.0432C107.704 53.024 119.877 44.7152 133.543 41.3789C146.525 38.2093 159.493 43.1952 172.54 46.0836C185.713 48.9996 200.6 48.9372 210.244 58.3586C219.944 67.8343 218.477 83.3367 223.543 95.9076C230.049 112.052 250.308 126.388 244.231 142.7C238.183 158.935 212.479 154.671 198.062 164.305Z" fill="white"/>
</g>
<g filter="url(#filter1_d_464_41)">
<path fill-rule="evenodd" clip-rule="evenodd" d="M289.002 181.906C303.726 183.909 319.611 177.845 332.342 185.515C345.514 193.452 352.43 208.409 357.242 223.022C362.071 237.687 365.724 253.999 359.553 268.151C353.586 281.834 337.293 286.349 325.59 295.608C313.185 305.424 304.793 324.837 289.002 323.972C273.078 323.1 269.091 299.613 255.21 291.755C238.138 282.089 210.673 290.808 200.633 273.945C191.041 257.834 206.542 238.113 212.737 220.413C218.764 203.192 219.883 180.651 236.162 172.432C252.538 164.163 270.826 179.433 289.002 181.906Z" fill="white"/>
</g>
<g filter="url(#filter2_d_464_41)">
<path fill-rule="evenodd" clip-rule="evenodd" d="M75.191 143.046C82.9177 142.737 90.5764 143.943 97.3528 147.867C104.854 152.211 111.626 158.132 115.305 166.276C119.317 175.161 122.722 186.047 118.579 194.866C114.491 203.568 103.388 204.572 95.2095 209.045C88.545 212.69 82.6552 217.737 75.191 218.596C67.0855 219.529 58.2725 219.166 51.7218 214.05C45.1945 208.952 42.3704 200.179 40.8428 191.771C39.4547 184.129 41.2317 176.563 43.5714 169.184C45.8914 161.867 48.4566 154.351 54.2169 149.59C60.0976 144.728 67.7221 143.344 75.191 143.046Z" fill="white"/>
</g>
<g clip-path="url(#clip0_464_41)">
<path d="M259.5 106.663H253.658V100.829C253.658 99.2823 253.043 97.7986 251.947 96.7046C250.852 95.6107 249.366 94.9961 247.817 94.9961C246.268 94.9961 244.782 95.6107 243.686 96.7046C242.591 97.7986 241.975 99.2823 241.975 100.829V106.663H195.244V100.829C195.244 99.2823 194.628 97.7986 193.533 96.7046C192.438 95.6107 190.952 94.9961 189.402 94.9961C187.853 94.9961 186.367 95.6107 185.272 96.7046C184.176 97.7986 183.561 99.2823 183.561 100.829V106.663H177.72C169.976 106.672 162.553 109.748 157.077 115.216C151.602 120.684 148.522 128.097 148.512 135.829V205.829C148.522 213.562 151.602 220.975 157.077 226.443C162.553 231.911 169.976 234.987 177.72 234.996H259.5C267.243 234.987 274.667 231.911 280.142 226.443C285.617 220.975 288.698 213.562 288.707 205.829V135.829C288.698 128.097 285.617 120.684 280.142 115.216C274.667 109.748 267.243 106.672 259.5 106.663V106.663ZM160.195 135.829C160.195 131.188 162.042 126.737 165.328 123.455C168.615 120.173 173.072 118.329 177.72 118.329H259.5C264.147 118.329 268.605 120.173 271.891 123.455C275.178 126.737 277.024 131.188 277.024 135.829V141.663H160.195V135.829ZM259.5 223.329H177.72C173.072 223.329 168.615 221.486 165.328 218.204C162.042 214.922 160.195 210.471 160.195 205.829V153.329H277.024V205.829C277.024 210.471 275.178 214.922 271.891 218.204C268.605 221.486 264.147 223.329 259.5 223.329Z" fill="#4683DF"/>
<path d="M218.61 191.246C223.449 191.246 227.372 187.329 227.372 182.496C227.372 177.664 223.449 173.746 218.61 173.746C213.77 173.746 209.848 177.664 209.848 182.496C209.848 187.329 213.77 191.246 218.61 191.246Z" fill="#4683DF"/>
<path d="M189.402 191.246C194.241 191.246 198.164 187.329 198.164 182.496C198.164 177.664 194.241 173.746 189.402 173.746C184.562 173.746 180.639 177.664 180.639 182.496C180.639 187.329 184.562 191.246 189.402 191.246Z" fill="#4683DF"/>
<path d="M247.818 191.246C252.657 191.246 256.58 187.329 256.58 182.496C256.58 177.664 252.657 173.746 247.818 173.746C242.978 173.746 239.056 177.664 239.056 182.496C239.056 187.329 242.978 191.246 247.818 191.246Z" fill="#4683DF"/>
</g>
<defs>
<filter id="filter0_d_464_41" x="40.7452" y="0.361328" width="244.609" height="236.616" filterUnits="userSpaceOnUse" color-interpolation-filters="sRGB">
<feFlood flood-opacity="0" result="BackgroundImageFix"/>
<feColorMatrix in="SourceAlpha" type="matrix" values="0 0 0 0 0 0 0 0 0 0 0 0 0 0 0 0 0 0 127 0" result="hardAlpha"/>
<feOffset/>
<feGaussianBlur stdDeviation="20"/>
<feColorMatrix type="matrix" values="0 0 0 0 0.27451 0 0 0 0 0.513726 0 0 0 0 0.87451 0 0 0 1 0"/>
<feBlend mode="normal" in2="BackgroundImageFix" result="effect1_dropShadow_464_41"/>
<feBlend mode="normal" in="SourceGraphic" in2="effect1_dropShadow_464_41" result="shape"/>
</filter>
<filter id="filter1_d_464_41" x="157.578" y="130" width="245.229" height="234" filterUnits="userSpaceOnUse" color-interpolation-filters="sRGB">
<feFlood flood-opacity="0" result="BackgroundImageFix"/>
<feColorMatrix in="SourceAlpha" type="matrix" values="0 0 0 0 0 0 0 0 0 0 0 0 0 0 0 0 0 0 127 0" result="hardAlpha"/>
<feOffset/>
<feGaussianBlur stdDeviation="20"/>
<feComposite in2="hardAlpha" operator="out"/>
<feColorMatrix type="matrix" values="0 0 0 0 1 0 0 0 0 0.643518 0 0 0 0 0.5625 0 0 0 1 0"/>
<feBlend mode="normal" in2="BackgroundImageFix" result="effect1_dropShadow_464_41"/>
<feBlend mode="normal" in="SourceGraphic" in2="effect1_dropShadow_464_41" result="shape"/>
</filter>
<filter id="filter2_d_464_41" x="0.354248" y="103" width="160.111" height="156" filterUnits="userSpaceOnUse" color-interpolation-filters="sRGB">
<feFlood flood-opacity="0" result="BackgroundImageFix"/>
<feColorMatrix in="SourceAlpha" type="matrix" values="0 0 0 0 0 0 0 0 0 0 0 0 0 0 0 0 0 0 127 0" result="hardAlpha"/>
<feOffset/>
<feGaussianBlur stdDeviation="20"/>
<feComposite in2="hardAlpha" operator="out"/>
<feColorMatrix type="matrix" values="0 0 0 0 1 0 0 0 0 0.643518 0 0 0 0 0.5625 0 0 0 1 0"/>
<feBlend mode="normal" in2="BackgroundImageFix" result="effect1_dropShadow_464_41"/>
<feBlend mode="normal" in="SourceGraphic" in2="effect1_dropShadow_464_41" result="shape"/>
</filter>
<clipPath id="clip0_464_41">
<rect width="140.194" height="140" fill="white" transform="translate(148.512 94.9961)"/>
</clipPath>
</defs>
</svg>
