<svg width="60" height="60" viewBox="0 0 60 60" fill="none" xmlns="http://www.w3.org/2000/svg">
<g clip-path="url(#clip0_393_475)">
<path d="M55.1421 13.0745L36.7071 4.29195C32.6491 1.86805 27.5983 1.82504 23.4996 4.17945L4.85717 13.0745C4.78721 13.1095 4.71467 13.147 4.64717 13.187C0.223105 15.7166 -1.31275 21.3536 1.21685 25.7777C2.07432 27.2775 3.3356 28.5063 4.85717 29.3245L9.99971 31.7745V44.0245C10.0028 49.5022 13.567 54.3416 18.7972 55.9695C22.4369 57.0225 26.211 57.538 29.9997 57.4995C33.7879 57.542 37.562 57.0308 41.2023 55.9821C46.4325 54.3542 49.9967 49.5147 49.9998 44.037V31.7695L54.9998 29.3795V49.9994C54.9998 51.3801 56.1191 52.4994 57.4998 52.4994C58.8805 52.4994 59.9997 51.3801 59.9997 49.9994V19.9994C60.0164 17.0638 57.6984 14.3518 55.1421 13.0745ZM44.9996 44.037C45.0009 47.3135 42.8751 50.2116 39.7496 51.1945C36.5802 52.1001 33.2958 52.5397 29.9996 52.4995C26.7035 52.5397 23.4191 52.1001 20.2496 51.1945C17.1241 50.2115 14.9983 47.3135 14.9996 44.037V34.1571L23.2922 38.1071C25.3383 39.3221 27.6751 39.9605 30.0547 39.9546C32.3197 39.9706 34.5466 39.371 36.4972 38.2196L44.9996 34.157V44.037ZM52.9997 24.812L34.1447 33.812C31.5157 35.3428 28.257 35.2994 25.6697 33.6995L7.22213 24.9245C5.16584 23.8156 4.39779 21.2498 5.50662 19.1936C5.88162 18.4982 6.44389 17.9218 7.12967 17.5295L25.8671 8.57949C28.4969 7.05207 31.7538 7.09531 34.3421 8.69199L52.7771 17.4745C54.1329 18.2273 54.9811 19.6489 54.9996 21.1995C55.0021 22.6684 54.2457 24.0343 52.9997 24.812Z" fill="#E1F2FE"/>
</g>
<defs>
<clipPath id="clip0_393_475">
<rect width="60" height="60" fill="white"/>
</clipPath>
</defs>
</svg>
